Coordinates
version=1
nRows=9
nColumns=63
inDegrees=yes

Units are S.I. units (second, meters, Newtons, ...)
If the header above contains a line with 'inDegrees', this indicates whether rotational values are in degrees (yes) or radians (no).

endheader
time	pelvis_tilt	pelvis_list	pelvis_rotation	pelvis_tx	pelvis_ty	pelvis_tz	hip_flexion_r	hip_adduction_r	hip_rotation_r	knee_angle_r	knee_angle_r_beta	ankle_angle_r	subtalar_angle_r	mtp_angle_r	hip_flexion_l	hip_adduction_l	hip_rotation_l	knee_angle_l	knee_angle_l_beta	ankle_angle_l	subtalar_angle_l	mtp_angle_l	L5_S1_Flex_Ext	L5_S1_Lat_Bending	L5_S1_axial_rotation	L4_L5_Flex_Ext	L4_L5_Lat_Bending	L4_L5_axial_rotation	L3_L4_Flex_Ext	L3_L4_Lat_Bending	L3_L4_axial_rotation	L2_L3_Flex_Ext	L2_L3_Lat_Bending	L2_L3_axial_rotation	L1_L2_Flex_Ext	L1_L2_Lat_Bending	L1_L2_axial_rotation	L1_T12_Flex_Ext	L1_T12_Lat_Bending	L1_T12_axial_rotation	Abs_r3	Abs_r2	Abs_r1	Abs_t1	Abs_t2	neck_flexion	neck_bending	neck_rotation	arm_flex_r	arm_add_r	arm_rot_r	elbow_flex_r	pro_sup_r	wrist_flex_r	wrist_dev_r	arm_flex_l	arm_add_l	arm_rot_l	elbow_flex_l	pro_sup_l	wrist_flex_l	wrist_dev_l
      7.28333333	     -4.24135664	     -7.49932191	     73.09083778	      0.28775565	      0.60017118	      0.68050731	      8.61708171	     -0.48840412	     -2.27103639	      7.49098734	      0.13074239	     26.66546003	      5.46607404	      0.00000000	      8.04371385	     -1.10242485	     -9.13551332	      5.78754698	      0.10101175	     29.49478069	     12.06221041	      0.00000000	      0.54515787	     -0.14465268	      1.04932387	      1.01241269	     -0.19238806	      1.11490661	      0.89563987	     -0.35170852	      1.11490661	      0.62306093	     -0.35170852	      0.91815839	      0.50623360	     -0.29497574	      0.85257564	      0.31150321	     -0.22406700	      0.78699290	      3.89400818	     -1.63634000	      5.83602457	      0.00000000	      0.00000000	     28.35291022	     -9.38773954	    -22.88168262	      9.62020709	     -7.12402953	     66.44934138	     34.29153856	     40.95795575	     -9.42121817	     -1.72593459	     16.54536310	     -5.90657192	     82.10424861	     34.89353251	     64.00651009	    -12.68365853	      0.77017693
      7.30000000	     -4.34092404	     -7.59769120	     73.11655895	      0.28804167	      0.59964108	      0.68008216	      8.66422286	     -0.45866098	     -0.84361119	      7.37066454	      0.12864236	     26.73808626	      3.45510957	      0.00000000	      8.13394755	     -1.05111354	     -9.38405188	      5.72031635	      0.09983835	     29.56765077	     12.50502452	      0.00000000	      0.55637148	     -0.15064074	      0.95301779	      1.03323747	     -0.20035218	      1.01258140	      0.91406270	     -0.36626789	      1.01258140	      0.63587696	     -0.36626789	      0.83389057	      0.51664655	     -0.30718660	      0.77432695	      0.31791066	     -0.23334251	      0.71476334	      3.97410582	     -1.70407818	      5.30039904	      0.00000000	      0.00000000	     28.36636674	     -8.59172700	    -21.78970233	      9.74315518	     -7.12836875	     66.94307462	     34.69089663	     38.91421881	     -8.94971456	     -0.55489979	     16.86545558	     -6.24440056	     83.97967189	     35.22850113	     64.73310494	    -15.28612252	     -0.05223035
      7.31666667	     -4.39745067	     -7.75848070	     72.96422861	      0.28829804	      0.59914354	      0.67977534	      8.82312366	     -0.45528258	     -0.80193109	      7.36126393	      0.12847829	     27.09186718	      3.69529141	      0.00000000	      8.23567780	     -1.00722379	     -8.81565600	      5.57614715	      0.09732213	     29.48386236	     11.47440149	      0.00000000	      0.56459329	     -0.14862965	      0.86110785	      1.04850619	     -0.19767743	      0.91492709	      0.92757031	     -0.36137812	      0.91492709	      0.64527367	     -0.36137812	      0.75346937	      0.52428133	     -0.30308558	      0.69965012	      0.32260860	     -0.23022732	      0.64583088	      4.03283339	     -1.68132829	      4.78922351	      0.00000000	      0.00000000	     28.37267185	     -8.13125272	    -21.37151364	      9.79234635	     -7.03538503	     66.99256109	     34.87883510	     39.10211245	     -8.81022936	      0.27293567	     16.83922140	     -6.54995688	     84.15440030	     35.42138276	     63.98511769	    -15.13522828	     -0.03533739
      7.33333333	     -4.45358944	     -7.89375355	     73.05689172	      0.28822397	      0.59873892	      0.67947502	      8.96149219	     -0.49034509	     -0.92161549	      7.40211104	      0.12919121	     27.37094023	      3.71655292	      0.00000000	      8.34590388	     -0.91474429	     -7.73105089	      5.44734533	      0.09507411	     29.38354548	     10.19957091	      0.00000000	      0.57158635	     -0.14129978	      0.68629634	      1.06149301	     -0.18792871	      0.72918986	      0.93905921	     -0.34355629	      0.72918986	      0.65326604	     -0.34355629	      0.60050929	      0.53077508	     -0.28813851	      0.55761577	      0.32660444	     -0.21887336	      0.51472225	      4.08278414	     -1.59841138	      3.81697433	      0.00000000	      0.00000000	     28.38331305	     -6.85966546	    -19.69617042	     10.06609328	     -6.95619303	     67.58225663	     34.96627905	     39.24115150	     -8.19028401	      1.49528310	     16.86440980	     -6.82299335	     85.05041296	     35.36051016	     65.22065920	    -16.09197805	     -1.15766633
      7.35000000	     -4.48632856	     -8.01990618	     72.70916034	      0.28846742	      0.59852725	      0.67939977	      9.17016071	     -0.46012634	     -0.82018617	      7.55509880	      0.13186135	     27.50978780	      3.96733841	      0.00000000	      8.37190837	     -0.89134232	     -7.26173780	      5.25150813	      0.09165611	     29.20220334	      9.02956686	      0.00000000	      0.57339818	     -0.12694351	      0.60536641	      1.06485775	     -0.16883487	      0.64320181	      0.94203586	     -0.30865045	      0.64320181	      0.65533678	     -0.30865045	      0.52969561	      0.53245755	     -0.25886320	      0.49186021	      0.32763972	     -0.19663549	      0.45402481	      4.09572583	     -1.43601036	      3.36686638	      0.00000000	      0.00000000	     28.39441345	     -5.52210354	    -18.09821709	     10.49052225	     -6.91510346	     68.77304503	     34.88477557	     39.50655839	     -7.89358332	      2.23074434	     16.83554650	     -6.95722178	     85.45965497	     35.28431542	     67.26411939	    -16.52648367	     -1.22157003
      7.36666667	     -4.46782977	     -8.31533718	     72.42330410	      0.28884428	      0.59830249	      0.67934701	      9.41121980	     -0.31048918	     -0.73420621	      7.43058373	      0.12968815	     27.28375897	      4.18288462	      0.00000000	      8.64863346	     -1.00335682	     -6.86085566	      5.28472890	      0.09223592	     29.21321943	      7.99712299	      0.00000000	      0.59616067	     -0.10934727	      0.55427563	      1.10712998	     -0.14543187	      0.58891785	      0.97943237	     -0.26586695	      0.58891785	      0.68135203	     -0.26586695	      0.48499117	      0.55359480	     -0.22298095	      0.45034895	      0.34064621	     -0.16937892	      0.41570672	      4.25831606	     -1.23695816	      3.08271475	      0.00000000	      0.00000000	     28.39670856	     -4.74964602	    -17.53299551	     10.56846987	     -6.73829855	     69.10456172	     34.69715415	     40.13313220	     -7.93167444	      2.92947355	     16.65540303	     -7.04737138	     85.49153213	     35.43552124	     66.33508883	    -16.04439526	     -0.40005898
      7.38333333	     -4.42616540	     -8.46094174	     72.25463262	      0.28912796	      0.59817202	      0.67925180	      9.54347744	     -0.13098768	      0.42823679	      7.43300523	      0.12973041	     26.97720445	      2.79089839	      0.00000000	      8.76101479	     -1.15919685	     -7.89076058	      5.33203580	      0.09306158	     29.56240289	      9.27769587	      0.00000000	      0.60814834	     -0.07891497	      0.34692086	      1.12939227	     -0.10495691	      0.36860342	      0.99912690	     -0.19187386	      0.36860342	      0.69505273	     -0.19187386	      0.30355576	      0.56472654	     -0.16092341	      0.28187320	      0.34749596	     -0.12223929	      0.26019065	      4.34394274	     -0.89270192	      1.92946977	      0.00000000	      0.00000000	     28.41089578	     -2.24683294	    -13.97323479	     11.86737518	     -6.67064363	     73.08701962	     34.21170853	     46.43968105	     -8.62019855	      2.66362722	     14.81904173	     -7.46951726	     78.53660224	     36.00840812	     80.77917454	    -14.65501088	      2.67378510
      7.40000000	     -4.33462238	     -8.69312588	     72.00637544	      0.28935634	      0.59812573	      0.67942269	      9.77279820	      0.06352064	      0.27108503	      7.41999100	      0.12950327	     26.85425481	      3.22776215	      0.00000000	      8.92761089	     -1.31174233	     -7.44704888	      5.29850348	      0.09247633	     29.54422379	      8.25426612	      0.00000000	      0.61943090	     -0.05630222	      0.36690961	      1.15034513	     -0.07488195	      0.38984146	      1.01766303	     -0.13689321	      0.38984146	      0.70794758	     -0.13689321	      0.32104591	      0.57520353	     -0.11481148	      0.29811406	      0.35394282	     -0.08721214	      0.27518221	      4.42453298	     -0.63690195	      2.04064117	      0.00000000	      0.00000000	     28.41481658	     -1.57637759	    -13.49840353	     11.95299482	     -6.64327898	     73.38342467	     34.06691368	     46.82873466	     -8.66390913	      3.04116929	     14.72168402	     -7.39476549	     78.64405926	     36.04036194	     78.04828854	    -14.15302625	      2.76318471
      7.41666667	     -4.22136513	     -8.79595993	     71.88850951	      0.28929439	      0.59818795	      0.67942729	      9.84449303	      0.21340922	      0.27078921	      7.37446600	      0.12870871	     26.87452023	      3.43328517	      0.00000000	      8.95996363	     -1.44634684	     -7.26701686	      5.28088869	      0.09216890	     29.62182140	      7.95667749	      0.00000000	      0.61113950	     -0.03376458	      0.39951294	      1.13494716	     -0.04490689	      0.42448250	      1.00404108	     -0.08209519	      0.42448250	      0.69847133	     -0.08209519	      0.34957383	      0.56750414	     -0.06885272	      0.32460427	      0.34920511	     -0.05230133	      0.29963471	      4.36530832	     -0.38195164	      2.22197113	      0.00000000	      0.00000000	     28.42076188	     -1.02939136	    -12.97220331	     12.10107355	     -6.76362501	     73.81345646	     34.01421445	     47.57417408	     -8.80435103	      2.87038753	     14.63057618	     -7.26100487	     78.40536836	     36.04960499	     77.22544530	    -13.91808164	      2.53041669
